<svg width="36" height="36" viewBox="0 0 36 36" fill="none" xmlns="http://www.w3.org/2000/svg">
<rect x="0.248535" y="0.248779" width="35" height="35" rx="17.5" fill="#EEEEEE"/>
<path d="M25.7035 13.7107C26.096 13.3221 26.0992 12.689 25.7107 12.2965C25.3221 11.904 24.689 11.9008 24.2965 12.2893L25.7035 13.7107ZM15.2966 21.1989L14.5859 21.9024L15.993 23.3237L16.7037 22.6202L15.2966 21.1989ZM24.2965 12.2893L15.2966 21.1989L16.7037 22.6202L25.7035 13.7107L24.2965 12.2893Z" fill="#666666"/>
<path d="M14.2929 21.7071L15 22.4142L16.4142 21L15.7071 20.2929L14.2929 21.7071ZM12.7071 17.2929C12.3166 16.9024 11.6834 16.9024 11.2929 17.2929C10.9024 17.6834 10.9024 18.3166 11.2929 18.7071L12.7071 17.2929ZM15.7071 20.2929L12.7071 17.2929L11.2929 18.7071L14.2929 21.7071L15.7071 20.2929Z" fill="#666666"/>
</svg>
