<svg width="35" height="26" viewBox="0 0 35 26" fill="none" xmlns="http://www.w3.org/2000/svg">
<path d="M35 13C35 13.2028 34.9198 13.3973 34.7771 13.5407C34.6345 13.6841 34.4409 13.7647 34.2391 13.7647H0.76087C0.559074 13.7647 0.365544 13.6841 0.222854 13.5407C0.080163 13.3973 0 13.2028 0 13C0 12.7972 0.080163 12.6027 0.222854 12.4593C0.365544 12.3159 0.559074 12.2353 0.76087 12.2353H34.2391C34.4409 12.2353 34.6345 12.3159 34.7771 12.4593C34.9198 12.6027 35 12.7972 35 13ZM0.76087 1.52941H34.2391C34.4409 1.52941 34.6345 1.44885 34.7771 1.30544C34.9198 1.16202 35 0.967519 35 0.764706C35 0.561893 34.9198 0.367387 34.7771 0.223977C34.6345 0.0805671 34.4409 0 34.2391 0H0.76087C0.559074 0 0.365544 0.0805671 0.222854 0.223977C0.080163 0.367387 0 0.561893 0 0.764706C0 0.967519 0.080163 1.16202 0.222854 1.30544C0.365544 1.44885 0.559074 1.52941 0.76087 1.52941ZM34.2391 24.4706H0.76087C0.559074 24.4706 0.365544 24.5512 0.222854 24.6946C0.080163 24.838 0 25.0325 0 25.2353C0 25.4381 0.080163 25.6326 0.222854 25.776C0.365544 25.9194 0.559074 26 0.76087 26H34.2391C34.4409 26 34.6345 25.9194 34.7771 25.776C34.9198 25.6326 35 25.4381 35 25.2353C35 25.0325 34.9198 24.838 34.7771 24.6946C34.6345 24.5512 34.4409 24.4706 34.2391 24.4706Z" fill="white"/>
</svg>
